<svg xmlns="http://www.w3.org/2000/svg" viewBox="4375 59 80.7 80.6">
  <defs>
    <style>
      .cls-1 {
        opacity: 0.53;
      }

      .cls-2 {
        fill: #fff;
      }
    </style>
  </defs>
  <g id="group-3" class="cls-1" transform="translate(4375 59)">
    <g id="group">
      <path id="path" class="cls-2" d="M27.4,51.2V29.4H38.6a24.31,24.31,0,0,1,5.2.4A12.029,12.029,0,0,1,47.3,31,9.658,9.658,0,0,1,51,34.8a12.094,12.094,0,0,1,1.3,5.8,12.039,12.039,0,0,1-1.2,5.5,7.849,7.849,0,0,1-3.6,3.6,11.8,11.8,0,0,1-3.3,1.2,37.834,37.834,0,0,1-5.6.3ZM37.5,34.5H33V46h4.5c3.2,0,5.5-.4,6.9-1.3a4.767,4.767,0,0,0,2.2-4.3A4.916,4.916,0,0,0,44.3,36c-1.5-1.1-3.8-1.5-6.8-1.5M67.9,51.6c-4.1,0-7.2-1-9.4-2.9q-3.3-3-3.3-8.4A10.5,10.5,0,0,1,58.7,32c2.3-2,5.6-3,9.8-3,4.1,0,7.4.8,9.6,2.8a6.428,6.428,0,0,1,1.8,2.7,7.286,7.286,0,0,1,.5,3h-6a2.1,2.1,0,0,0-.7-1.4,5.457,5.457,0,0,0-2.6-1.4,14.822,14.822,0,0,0-3.1-.3c-2.1,0-3.7.3-4.9,1.4a6.193,6.193,0,0,0-1.7,4.7A5.952,5.952,0,0,0,63.1,45c1.1,1,2.8,1.3,5,1.3a17.216,17.216,0,0,0,3.3-.2,5.393,5.393,0,0,0,2.2-.9,3.214,3.214,0,0,0,1.1-2.4h6c0,2.7-.8,4.9-2.7,6.2-2.4,1.9-5.7,2.6-10.1,2.6"/>
      <path id="path-2" data-name="path" class="cls-2" d="M7.7,29.4H22.5v5.1H6.5c-.2,1.1-.3,2.3-.4,3.4H21.7v4.6H6c.1,1.2.2,2.3.4,3.5H22.8v5.3H1.5A40.553,40.553,0,0,1,0,40.3V37.5a43.067,43.067,0,0,1,1.3-8v-.4l6.4.3Z"/>
    </g>
    <path id="path-3" data-name="path" class="cls-2" d="M40.3,0a40.432,40.432,0,0,1,38,26.8,29.67,29.67,0,0,0-52.5-.9H2.6A40.434,40.434,0,0,1,40.3,0"/>
    <path id="path-4" data-name="path" class="cls-2" d="M77.9,54.6a40.311,40.311,0,0,1-75.7-.9A29.991,29.991,0,0,0,28.8,70a29.554,29.554,0,0,0,26-15.4Z"/>
  </g>
</svg>
